<mxfile host="app.diagrams.net" modified="2023-10-19T23:33:46.287Z" agent="Mozilla/5.0 (Windows NT 10.0; Win64; x64) AppleWebKit/537.36 (KHTML, like Gecko) Chrome/117.0.0.0 Safari/537.36 Edg/117.0.2045.31" etag="bdEWoW75qDTLUOGoTtDi" version="22.0.5" type="github">
  <diagram name="Page-1" id="ZVQmA9r2FBjZppZ2PGTq">
    <mxGraphModel dx="1426" dy="759" grid="1" gridSize="10" guides="1" tooltips="1" connect="1" arrows="1" fold="1" page="1" pageScale="1" pageWidth="850" pageHeight="1100" math="0" shadow="0">
      <root>
        <mxCell id="0" />
        <mxCell id="1" parent="0" />
        <mxCell id="LpGtn_YL_ZW-nLMUOuTh-9" value="&lt;b style=&quot;font-size: 22px;&quot;&gt;set x = 3&lt;br&gt;set i = 0&lt;br&gt;set i = i + 1&lt;br&gt;check if i &amp;lt; 10&lt;br&gt;print i x X&lt;/b&gt;" style="whiteSpace=wrap;html=1;aspect=fixed;" vertex="1" parent="1">
          <mxGeometry x="90" y="90" width="190" height="190" as="geometry" />
        </mxCell>
      </root>
    </mxGraphModel>
  </diagram>
</mxfile>
